<svg width="1024" height="1024" viewBox="0 0 1024 1024" fill="none" xmlns="http://www.w3.org/2000/svg" role="img" aria-labelledby="title">
  <title id="title">fhcsij logo</title>
  <path
    fill-rule="evenodd"
    clip-rule="evenodd"
    d="M515.5 212C421.6 212 345.5 288.1 345.5 382C345.5 430.6 365.9 474.5 398.6 505.5L333.3 573.4C318.3 589 318.7 613.8 334.2 628.8C349.8 643.8 374.6 643.4 389.6 627.9L454.7 560.2C473.8 567.8 494.3 572 515.5 572C609.4 572 685.5 495.9 685.5 402C685.5 288.1 609.4 212 515.5 212ZM515.5 304C558.6 304 593.5 338.9 593.5 382C593.5 425.1 558.6 460 515.5 460C472.4 460 437.5 425.1 437.5 382C437.5 338.9 472.4 304 515.5 304Z"
    fill="#171817"
  />
  <path
    fill-rule="evenodd"
    clip-rule="evenodd"
    d="M517.5 452C423.6 452 347.5 528.1 347.5 622C347.5 715.9 423.6 792 517.5 792C611.4 792 687.5 715.9 687.5 622C687.5 528.1 611.4 452 517.5 452ZM517.5 544C560.6 544 595.5 578.9 595.5 622C595.5 665.1 560.6 700 517.5 700C474.4 700 439.5 665.1 439.5 622C439.5 578.9 474.4 544 517.5 544Z"
    fill="#171817"
  />
  <path d="M333 575L515 465L392 625L333 575Z" fill="#171817" />
</svg>
